<?xml version="1.0" encoding="UTF-8"?>
<!DOCTYPE svg PUBLIC "-//W3C//DTD SVG 1.1//EN" "http://www.w3.org/Graphics/SVG/1.1/DTD/svg11.dtd">
<!-- Creator: CorelDRAW 2019 (64-Bit) -->
<svg xmlns="http://www.w3.org/2000/svg" xml:space="preserve" width="37.8689mm" height="30.3848mm" version="1.1" style="shape-rendering:geometricPrecision; text-rendering:geometricPrecision; image-rendering:optimizeQuality; fill-rule:evenodd; clip-rule:evenodd"
viewBox="0 0 550.87 442"
 xmlns:xlink="http://www.w3.org/1999/xlink"
 xmlns:xodm="http://www.corel.com/coreldraw/odm/2003">
 <defs>
  <style type="text/css">
   <![CDATA[
    .fil0 {fill:#004D9D;fill-rule:nonzero}
   ]]>
  </style>
 </defs>
 <g id="Слой_x0020_1">
  <metadata id="CorelCorpID_0Corel-Layer"/>
  <path class="fil0" d="M516.04 93.63c2.18,-8.71 4.35,-15.24 6.53,-19.6 2.18,-4.36 4.36,-6.53 8.71,-6.53 6.53,-4.36 13.06,-8.71 15.24,-13.06 2.18,-4.36 4.36,-10.89 4.36,-15.24 0,-15.24 -8.71,-26.13 -23.95,-30.48 -15.24,-4.36 -37.01,-6.53 -67.5,-6.53 -26.13,0 -43.55,0 -54.43,2.18 -8.71,2.18 -17.42,4.36 -21.77,6.53 -4.36,4.36 -10.89,8.71 -17.42,17.42 -6.53,8.71 -13.06,19.6 -17.42,34.84 -17.42,41.37 -32.66,71.85 -43.55,91.45 -10.89,19.6 -19.6,28.31 -28.31,28.31 -15.24,0 -39.19,-37.01 -69.68,-108.87 -4.36,-19.59 -13.06,-32.66 -19.6,-43.55 -8.71,-10.89 -15.24,-17.42 -19.6,-19.6 -2.18,-2.18 -10.89,-4.36 -28.31,-6.53 -15.24,-2.18 -32.66,-4.36 -54.43,-4.36 -30.48,0 -52.26,2.18 -65.32,8.71 -13.06,8.71 -19.6,17.42 -19.6,28.31 0,15.24 10.89,28.31 30.48,39.19 4.36,4.35 6.53,6.53 8.71,8.71 2.18,4.36 4.36,8.71 6.53,17.42 2.18,8.71 2.18,19.6 2.18,34.84 0,15.24 0,34.84 0,60.97 0,30.48 0,56.61 0,76.21 0,19.6 -2.18,37.01 -2.18,47.9 -2.18,13.06 -2.18,21.77 -4.36,28.31 -2.18,6.53 -4.36,10.89 -6.53,15.24 -2.18,2.18 -4.36,4.36 -8.71,6.53 -4.36,2.18 -6.53,4.36 -10.89,6.53 -4.36,2.18 -6.53,6.53 -10.89,8.71 -2.18,4.36 -4.36,10.89 -4.36,17.42 0,13.06 6.53,21.77 19.6,28.31 13.06,6.53 34.84,8.71 63.14,8.71 28.31,0 50.08,-2.18 63.14,-6.53 13.06,-4.36 19.6,-13.06 19.6,-26.13 0,-8.71 -2.18,-15.24 -6.53,-21.77 -4.36,-4.36 -8.71,-8.71 -15.24,-10.89 -6.53,-4.35 -10.89,-8.71 -13.06,-17.42 -2.18,-6.53 -4.36,-21.77 -4.36,-43.55 0,-17.42 0,-32.66 0,-43.55 0,-10.89 2.18,-19.6 2.18,-23.95 2.18,-4.35 2.18,-8.71 4.35,-10.89 2.18,-2.18 4.36,-2.18 6.53,-2.18 2.18,0 4.36,0 6.53,2.18 2.18,2.18 4.36,4.36 6.53,8.71 2.18,4.36 6.53,13.06 10.89,23.95 4.36,10.89 10.89,23.95 17.42,43.55 8.71,23.95 15.24,41.37 21.77,56.61 6.53,15.24 10.89,23.95 17.42,30.48 4.36,6.53 8.71,10.89 13.06,13.06 4.36,2.18 8.71,2.18 13.06,2.18 4.36,0 8.71,0 13.06,-2.18 4.36,-2.18 8.71,-6.53 13.06,-15.24 4.36,-8.71 10.89,-19.6 17.42,-34.84 6.53,-15.24 15.24,-37.01 23.95,-63.14 4.36,-13.06 10.89,-26.13 13.06,-34.84 4.36,-8.71 6.53,-15.24 8.71,-19.6 2.18,-4.36 4.36,-6.53 6.53,-8.71 2.18,-2.18 4.36,-2.18 6.53,-2.18 4.36,0 6.53,2.18 8.71,6.53 2.18,4.36 4.36,13.06 4.36,26.13 0,26.13 0,45.73 -2.18,60.97 -2.18,15.24 -4.36,26.13 -8.71,32.66 -2.18,2.18 -4.36,4.36 -6.53,6.53 -2.18,2.18 -6.53,4.36 -8.71,6.53 -2.18,2.18 -4.36,4.36 -6.53,8.71 -2.18,4.36 -2.18,8.71 -2.18,13.06 0,17.42 8.71,28.31 26.13,34.84 17.42,6.53 45.73,8.71 82.74,8.71 39.19,0 67.5,-2.18 87.1,-8.71 19.6,-6.53 28.31,-17.42 28.31,-34.84 0,-6.53 -2.18,-13.06 -4.36,-17.42 -2.18,-4.36 -6.53,-8.71 -8.71,-10.89 -4.36,-2.18 -6.53,-4.36 -10.89,-6.53 -4.36,-2.18 -6.53,-2.18 -6.53,-4.36 -2.18,-4.36 -6.53,-19.6 -8.71,-43.55 -2.18,-23.95 -4.36,-60.97 -4.36,-104.51 0,-30.48 0,-54.43 2.18,-74.03 2.18,-17.42 4.36,-30.48 6.53,-41.37z"/>
 </g>
</svg>
