<?xml version="1.0" encoding="UTF-8"?>
<!DOCTYPE svg PUBLIC "-//W3C//DTD SVG 1.1//EN" "http://www.w3.org/Graphics/SVG/1.1/DTD/svg11.dtd">
<!-- Creator: CorelDRAW 2019 (64-Bit) -->
<svg xmlns="http://www.w3.org/2000/svg" xml:space="preserve" width="2.7092mm" height="2.6664mm" version="1.1" style="shape-rendering:geometricPrecision; text-rendering:geometricPrecision; image-rendering:optimizeQuality; fill-rule:evenodd; clip-rule:evenodd"
viewBox="0 0 22.11 21.76"
 xmlns:xlink="http://www.w3.org/1999/xlink"
 xmlns:xodm="http://www.corel.com/coreldraw/odm/2003">
 <defs>
  <style type="text/css">
   <![CDATA[
    .fil0 {fill:url(#id0)}
    .fil1 {fill:url(#id1)}
   ]]>
  </style>
  <linearGradient id="id0" gradientUnits="userSpaceOnUse" x1="17.89" y1="19.43" x2="4.22" y2="2.33">
   <stop offset="0" style="stop-opacity:1; stop-color:#49A834"/>
   <stop offset="0.65098" style="stop-opacity:1; stop-color:#75D061"/>
   <stop offset="1" style="stop-opacity:1; stop-color:#A2F98E"/>
  </linearGradient>
  <linearGradient id="id1" gradientUnits="userSpaceOnUse" xlink:href="#id0" x1="16.98" y1="13.59" x2="15.6" y2="8.96">
  </linearGradient>
 </defs>
 <g id="Слой_x0020_1">
  <metadata id="CorelCorpID_0Corel-Layer"/>
  <g id="_2888813057296">
   <path class="fil0" d="M10.88 0c3.61,0 7.27,0.12 10.91,0.12l0 4.38 -10.59 0c-3.54,0 -6.44,2.9 -6.44,6.44l0 0c0,3.54 2.9,6.44 6.44,6.44l10.91 0 0 4.37c-3.74,0 -7.49,0.01 -11.23,0.01 -6.01,0 -10.88,-4.87 -10.88,-10.88 0,-6.01 4.87,-10.88 10.88,-10.88z"/>
   <rect class="fil1" x="10.79" y="9.33" width="11.01" height="3.9"/>
  </g>
 </g>
</svg>
